{"title":"OSU Miami_9-11-2010_1st_Half","uid":5827744,"size":2433207173,"categoryP":"video","categoryS":"tv_shows","magnet":"?xt=urn:btih:d8cf209fb1230276bb298c81b6f39cc159819033&amp;dn=OSU+Miami_9-11-2010_1st_Half&amp;tr=udp%3A%2F%2Ftracker.openbittorrent.com%3A80&amp;tr=udp%3A%2F%2Fopen.demonii.com%3A1337&amp;tr=udp%3A%2F%2Ftracker.coppersurfer.tk%3A6969&amp;tr=udp%3A%2F%2Fexodus.desync.com%3A6969","seeders":0,"leechers":0,"uploader":"thetorrentlord","files":12,"time":1284391834,"description":"Lost the signal for the last 3 min. of the 2nd quarter. OSU scored a touchdown in that time period. This is from a Tivo HD signal, but when I tried to get it to the hard drive of the computer it only recorded it in SD 720x480. I have never been able to get a Tivo into the computer without it being 720x480. Also the Columbus Dispatch for the week.  GO BUCKS!!!!! DECLAW THE BOBCATS!!!!!!  Enjoy and please share. Question, comments,suggestions, and complaints always welcome. Once again, sorry about the mmissing 3 min. of Quarter 2.\t\t\t\t\t\t\t\t\t\t\t\t\t\t\t\t\t\t\t\t\t\t\t\tFormat                           : AVI\nFormat/Info                      : Audio Video Interleave\nFile size                        : 983 MiB\nDuration                         : 1h 24mn\nOverall bit rate                 : 1 621 Kbps\nDirector                         : created.with.SUPER(C).v2010.bld.37\nWriting application              : SUPER(C) - by eRightSoft\n\nVideo\nID                               : 0\nFormat                           : MPEG-4 Visual\nFormat profile                   : Advanced Simple@L5\nFormat settings, BVOP            : Yes\nFormat settings, QPel            : No\nFormat settings, GMC             : No warppoints\nFormat settings, Matrix          : Default (MPEG)\nCodec ID                         : XVID\nCodec ID/Hint                    : XviD\nDuration                         : 42mn 23s\nBit rate                         : 3 116 Kbps\nWidth                            : 624 pixels\nHeight                           : 352 pixels\nDisplay aspect ratio             : 16:9\nFrame rate                       : 29.970 fps\nColor space                      : YUV\nChroma subsampling               : 4:2:0\nBit depth                        : 8 bits\nScan type                        : Progressive\nBits/(Pixel*Frame)               : 0.473\nStream size                      : 945 MiB (96%)\nWriting library                  : XviD 1.1.2 (UTC 2006-11-01)\n\nAudio\nID                               : 1\nFormat                           : MPEG Audio\nFormat version                   : Version 2\nFormat profile                   : Layer 3\nCodec ID                         : 55\nCodec ID/Hint                    : MP3\nDuration                         : 1h 24mn\nBit rate mode                    : Constant\nBit rate                         : 112 Kbps\nChannel(s)                       : 2 channels\nSampling rate                    : 22.05 KHz\nVideo delay                      : 33ms\nStream size                      : 34.0 MiB (3%)\nAlignment                        : Aligned on interleaves\nInterleave, duration             : 26 ms (0.78 video frame)\nInterleave, preload duration     : 522 ms\nWriting library                  : LAME3.97\n\n","torrent":{"xt":"urn:btih:d8cf209fb1230276bb298c81b6f39cc159819033","amp;dn":"OSU+Miami_9-11-2010_1st_Half","amp;tr":["udp%3A%2F%2Ftracker.openbittorrent.com%3A80","udp%3A%2F%2Fopen.demonii.com%3A1337","udp%3A%2F%2Ftracker.coppersurfer.tk%3A6969","udp%3A%2F%2Fexodus.desync.com%3A6969"],"infoHash":"d8cf209fb1230276bb298c81b6f39cc159819033","infoHashBuffer":{"type":"Buffer","data":[216,207,32,159,177,35,2,118,187,41,140,129,182,243,156,193,89,129,144,51]},"announce":[],"urlList":[]}}